# xmcd
#
# Track frame offsets:
#	150
#	28012
#	46677
#	60052
#	74085
#	87270
#	100340
#	113330
#	126557
#	141575
#	152947
#	167085
#	175909
#	186685
#	194115
#	207215
#
# Disc length: 2872 seconds
#
# Revision: 0
# Processed by: cddbd v1.4PL0 Copyright (c) Steve Scherf et al.
# Submitted via: MusicWizard 6.0.1
#
DISCID=f00b3610
DTITLE=Various Artist - The Ultimate Anthology Of Blues and Jazz, Volume 2 [CD 2/2)
DYEAR=1900
DGENRE=Blues
TTITLE0=William Brown - Mississippi Blues
TTITLE1=Bozie Sturdivant - Ain't No Grave Can Hold My Body Down
TTITLE2=David Edwards - Worried Life Blues
TTITLE3=Muddy Waters - I Be's Troubled
TTITLE4=Robert Lockwood - Take A Little Walk With Me
TTITLE5=Johnny Shines - Ride, Ride Mama
TTITLE6=Sunnyland Slim - Johnson Machine Gun
TTITLE7=Muddy Waters - Rollin' Stone
TTITLE8=B.B. King - B.B.'s Boogie
TTITLE9=Arthur "Big Boy" Crudup - My Baby Left Me
TTITLE10=Howlin' Wolf - Hold On To Your Money
TTITLE11=John Lee Hooker - Hobo Blues
TTITLE12=Staple Singers - Don't Knock
TTITLE13=Dr. Ross - China Blues
TTITLE14=Big Joe Williams - Down In The Bottom
TTITLE15=Big Joe Williams - Watergate Blues
EXTD=
EXTT0=
EXTT1=
EXTT2=
EXTT3=
EXTT4=
EXTT5=
EXTT6=
EXTT7=
EXTT8=
EXTT9=
EXTT10=
EXTT11=
EXTT12=
EXTT13=
EXTT14=
EXTT15=
PLAYORDER=
